<svg xmlns="http://www.w3.org/2000/svg" width="969" height="894" viewBox="0 0 969 894"><rect x="0" y="0" width="969" height="894" fill="#ffffff"/><text x="16" y="30" font-family="sans-serif" font-size="14" font-weight="bold">Before</text><g transform="translate(25,55)"><defs><marker id='klaiv-arrow-open' markerWidth='10' markerHeight='10' refX='8' refY='5' orient='auto'><path d='M1,1 L9,5 L1,9' fill='none' stroke='#666666' stroke-width='1.5' stroke-linejoin='round'/></marker><marker id='klaiv-arrow-filled' markerWidth='10' markerHeight='10' refX='8' refY='5' orient='auto'><path d='M1,1 L9,5 L1,9 Z' fill='#666666'/></marker><marker id='klaiv-arrow-hollow' markerWidth='10' markerHeight='10' refX='8' refY='5' orient='auto'><path d='M1,1 L9,5 L1,9 Z' fill='#ffffff' stroke='#666666' stroke-width='1.5'/></marker><marker id='klaiv-arrow-diamond' markerWidth='10' markerHeight='10' refX='8' refY='5' orient='auto'><path d='M1,5 L5,1 L9,5 L5,9 Z' fill='#ffffff' stroke='#666666' stroke-width='1.5'/></marker><marker id='klaiv-arrow-filled-diamond' markerWidth='10' markerHeight='10' refX='8' refY='5' orient='auto'><path d='M1,5 L5,1 L9,5 L5,9 Z' fill='#666666'/></marker><marker id='klaiv-arrow-src-diamond' markerWidth='12' markerHeight='10' refX='1' refY='5' orient='auto'><path d='M1,5 L5,1 L9,5 L5,9 Z' fill='#ffffff' stroke='#666666' stroke-width='1.5'/></marker><marker id='klaiv-arrow-src-filled-diamond' markerWidth='12' markerHeight='10' refX='1' refY='5' orient='auto'><path d='M1,5 L5,1 L9,5 L5,9 Z' fill='#666666'/></marker><marker id='klaiv-arrow-src-circle' markerWidth='12' markerHeight='10' refX='1' refY='5' orient='auto'><circle cx='5' cy='5' r='4' fill='none' stroke='#666666' stroke-width='1.5'/><line x1='5' y1='1.5' x2='5' y2='8.5' stroke='#666666' stroke-width='1.5'/><line x1='1.5' y1='5' x2='8.5' y2='5' stroke='#666666' stroke-width='1.5'/></marker><marker id='klaiv-arrow-wedge' markerWidth='14' markerHeight='14' refX='7' refY='7' orient='auto'><polygon points='0,3 14,7 0,11' fill='#666666'/></marker></defs><style>text { font-family: sans-serif; }</style><g transform='translate(31,27)'><rect width='262' height='137' rx='8' fill='rgba(217,164,65,0.08)' stroke='#d9a441' stroke-width='1.5'/><g transform='translate(103,18) scale(2.3333333333333335)' fill='none'><path d="M2 3 H19.5 A2.5 2.5 0 0 1 22 5.5 V18.5 A2.5 2.5 0 0 1 19.5 21 H4.5 A2.5 2.5 0 0 1 2 18.5 V3 Z" fill="#3FA15C" stroke="none"></path>
  <path d="M2 3 H9 V6.5 L7 8.5 H2 Z" fill="#2E8248" stroke="none"></path>
  <g stroke="#ffffff" stroke-width="1.8" fill="none">
  <ellipse cx="12.5" cy="14" rx="6.5" ry="4.2"></ellipse>
  </g></g><text x='131' y='98' text-anchor='middle' font-size='14' font-weight='600' fill='#222222'>Operating an Autonomous Vehicle</text></g><g transform='translate(311,27)'><rect width='262' height='138' rx='8' fill='rgba(217,164,65,0.08)' stroke='#d9a441' stroke-width='1.5'/><g transform='translate(103,18) scale(2.3333333333333335)' fill='none'><path d="M2 3 H19.5 A2.5 2.5 0 0 1 22 5.5 V18.5 A2.5 2.5 0 0 1 19.5 21 H4.5 A2.5 2.5 0 0 1 2 18.5 V3 Z" fill="#3FA15C" stroke="none"></path>
  <path d="M2 3 H9 V6.5 L7 8.5 H2 Z" fill="#2E8248" stroke="none"></path>
  <g stroke="#ffffff" stroke-width="1.8" fill="none">
  <ellipse cx="12.5" cy="14" rx="6.5" ry="4.2"></ellipse>
  </g></g><text x='131' y='98' text-anchor='middle' font-size='14' font-weight='600' fill='#222222'>Developing and Testing Autoware</text></g><g transform='translate(593,25)'><rect width='295' height='140' rx='8' fill='rgba(217,164,65,0.08)' stroke='#d9a441' stroke-width='1.5'/><g transform='translate(120,18) scale(2.3333333333333335)' fill='none'><path d="M2 3 H19.5 A2.5 2.5 0 0 1 22 5.5 V18.5 A2.5 2.5 0 0 1 19.5 21 H4.5 A2.5 2.5 0 0 1 2 18.5 V3 Z" fill="#D44E55" stroke="none"></path>
  <path d="M2 3 H9 V6.5 L7 8.5 H2 Z" fill="#B83A41" stroke="none"></path>
  <g stroke="#ffffff" stroke-width="1.8" fill="none">
  <rect x="6.5" y="10" width="11" height="8"></rect>
  <line x1="8" y1="12.3" x2="11" y2="12.3"></line>
  <line x1="8" y1="14.3" x2="16" y2="14.3"></line>
  <line x1="8" y1="16" x2="16" y2="16"></line>
  </g></g><text x='147.5' y='98' text-anchor='middle' font-size='14' font-weight='600' fill='#222222'>Crosswalk Safety Requirements</text></g><g transform='translate(33,190)'><rect width='260' height='140' rx='8' fill='rgba(217,164,65,0.08)' stroke='#d9a441' stroke-width='1.5'/><g transform='translate(102,18) scale(2.3333333333333335)' fill='none'><path d="M2 3 H19.5 A2.5 2.5 0 0 1 22 5.5 V18.5 A2.5 2.5 0 0 1 19.5 21 H4.5 A2.5 2.5 0 0 1 2 18.5 V3 Z" fill="#8A52C6" stroke="none"></path>
  <path d="M2 3 H9 V6.5 L7 8.5 H2 Z" fill="#7140A8" stroke="none"></path>
  <g stroke="#ffffff" stroke-width="1.8" fill="none">
  <rect x="6.5" y="10" width="11" height="8"></rect>
  <path d="M6.5 10 H17.5 V12.4 H6.5 Z" fill="#ffffff" stroke="none"></path>
  </g></g><text x='130' y='98' text-anchor='middle' font-size='14' font-weight='600' fill='#222222'>Autoware System Decomposition</text></g></g><text x="16" y="455" font-family="sans-serif" font-size="14" font-weight="bold">After</text><g transform="translate(25,480)"><defs><marker id='klaiv-arrow-open' markerWidth='10' markerHeight='10' refX='8' refY='5' orient='auto'><path d='M1,1 L9,5 L1,9' fill='none' stroke='#666666' stroke-width='1.5' stroke-linejoin='round'/></marker><marker id='klaiv-arrow-filled' markerWidth='10' markerHeight='10' refX='8' refY='5' orient='auto'><path d='M1,1 L9,5 L1,9 Z' fill='#666666'/></marker><marker id='klaiv-arrow-hollow' markerWidth='10' markerHeight='10' refX='8' refY='5' orient='auto'><path d='M1,1 L9,5 L1,9 Z' fill='#ffffff' stroke='#666666' stroke-width='1.5'/></marker><marker id='klaiv-arrow-diamond' markerWidth='10' markerHeight='10' refX='8' refY='5' orient='auto'><path d='M1,5 L5,1 L9,5 L5,9 Z' fill='#ffffff' stroke='#666666' stroke-width='1.5'/></marker><marker id='klaiv-arrow-filled-diamond' markerWidth='10' markerHeight='10' refX='8' refY='5' orient='auto'><path d='M1,5 L5,1 L9,5 L5,9 Z' fill='#666666'/></marker><marker id='klaiv-arrow-src-diamond' markerWidth='12' markerHeight='10' refX='1' refY='5' orient='auto'><path d='M1,5 L5,1 L9,5 L5,9 Z' fill='#ffffff' stroke='#666666' stroke-width='1.5'/></marker><marker id='klaiv-arrow-src-filled-diamond' markerWidth='12' markerHeight='10' refX='1' refY='5' orient='auto'><path d='M1,5 L5,1 L9,5 L5,9 Z' fill='#666666'/></marker><marker id='klaiv-arrow-src-circle' markerWidth='12' markerHeight='10' refX='1' refY='5' orient='auto'><circle cx='5' cy='5' r='4' fill='none' stroke='#666666' stroke-width='1.5'/><line x1='5' y1='1.5' x2='5' y2='8.5' stroke='#666666' stroke-width='1.5'/><line x1='1.5' y1='5' x2='8.5' y2='5' stroke='#666666' stroke-width='1.5'/></marker><marker id='klaiv-arrow-wedge' markerWidth='14' markerHeight='14' refX='7' refY='7' orient='auto'><polygon points='0,3 14,7 0,11' fill='#666666'/></marker></defs><style>text { font-family: sans-serif; }</style><g transform='translate(31,27)'><rect width='262' height='137' rx='8' fill='rgba(217,164,65,0.08)' stroke='#d9a441' stroke-width='1.5'/><g transform='translate(103,18) scale(2.3333333333333335)' fill='none'><path d="M2 3 H19.5 A2.5 2.5 0 0 1 22 5.5 V18.5 A2.5 2.5 0 0 1 19.5 21 H4.5 A2.5 2.5 0 0 1 2 18.5 V3 Z" fill="#3FA15C" stroke="none"></path>
  <path d="M2 3 H9 V6.5 L7 8.5 H2 Z" fill="#2E8248" stroke="none"></path>
  <g stroke="#ffffff" stroke-width="1.8" fill="none">
  <ellipse cx="12.5" cy="14" rx="6.5" ry="4.2"></ellipse>
  </g></g><text x='131' y='98' text-anchor='middle' font-size='14' font-weight='600' fill='#222222'>Operating an Autonomous Vehicle</text></g><g transform='translate(311,27)'><rect width='262' height='138' rx='8' fill='rgba(217,164,65,0.08)' stroke='#d9a441' stroke-width='1.5'/><g transform='translate(103,18) scale(2.3333333333333335)' fill='none'><path d="M2 3 H19.5 A2.5 2.5 0 0 1 22 5.5 V18.5 A2.5 2.5 0 0 1 19.5 21 H4.5 A2.5 2.5 0 0 1 2 18.5 V3 Z" fill="#3FA15C" stroke="none"></path>
  <path d="M2 3 H9 V6.5 L7 8.5 H2 Z" fill="#2E8248" stroke="none"></path>
  <g stroke="#ffffff" stroke-width="1.8" fill="none">
  <ellipse cx="12.5" cy="14" rx="6.5" ry="4.2"></ellipse>
  </g></g><text x='131' y='98' text-anchor='middle' font-size='14' font-weight='600' fill='#222222'>Developing and Testing Autoware</text></g><g transform='translate(593,25)'><rect width='295' height='140' rx='8' fill='rgba(217,164,65,0.08)' stroke='#d9a441' stroke-width='1.5'/><g transform='translate(120,18) scale(2.3333333333333335)' fill='none'><path d="M2 3 H19.5 A2.5 2.5 0 0 1 22 5.5 V18.5 A2.5 2.5 0 0 1 19.5 21 H4.5 A2.5 2.5 0 0 1 2 18.5 V3 Z" fill="#D44E55" stroke="none"></path>
  <path d="M2 3 H9 V6.5 L7 8.5 H2 Z" fill="#B83A41" stroke="none"></path>
  <g stroke="#ffffff" stroke-width="1.8" fill="none">
  <rect x="6.5" y="10" width="11" height="8"></rect>
  <line x1="8" y1="12.3" x2="11" y2="12.3"></line>
  <line x1="8" y1="14.3" x2="16" y2="14.3"></line>
  <line x1="8" y1="16" x2="16" y2="16"></line>
  </g></g><text x='147.5' y='98' text-anchor='middle' font-size='14' font-weight='600' fill='#222222'>Crosswalk Safety Requirements</text></g><g transform='translate(33,190)'><rect width='260' height='140' rx='8' fill='rgba(217,164,65,0.08)' stroke='#d9a441' stroke-width='1.5'/><g transform='translate(102,18) scale(2.3333333333333335)' fill='none'><path d="M2 3 H19.5 A2.5 2.5 0 0 1 22 5.5 V18.5 A2.5 2.5 0 0 1 19.5 21 H4.5 A2.5 2.5 0 0 1 2 18.5 V3 Z" fill="#8A52C6" stroke="none"></path>
  <path d="M2 3 H9 V6.5 L7 8.5 H2 Z" fill="#7140A8" stroke="none"></path>
  <g stroke="#ffffff" stroke-width="1.8" fill="none">
  <rect x="6.5" y="10" width="11" height="8"></rect>
  <path d="M6.5 10 H17.5 V12.4 H6.5 Z" fill="#ffffff" stroke="none"></path>
  </g></g><text x='130' y='98' text-anchor='middle' font-size='14' font-weight='600' fill='#222222'>Autoware System Decomposition</text></g><g transform='translate(313,189)'><rect width='263' height='140' rx='8' fill='rgba(217,164,65,0.08)' stroke='#d9a441' stroke-width='1.5'/><g transform='translate(104,18) scale(2.3333333333333335)' fill='none'><path d="M2 3 H19.5 A2.5 2.5 0 0 1 22 5.5 V18.5 A2.5 2.5 0 0 1 19.5 21 H4.5 A2.5 2.5 0 0 1 2 18.5 V3 Z" fill="#8A52C6" stroke="none"></path>
  <path d="M2 3 H9 V6.5 L7 8.5 H2 Z" fill="#7140A8" stroke="none"></path>
  <g stroke="#ffffff" stroke-width="1.8" fill="none">
  <rect x="6.5" y="10" width="11" height="8"></rect>
  <path d="M6.5 10 H17.5 V12.4 H6.5 Z" fill="#ffffff" stroke="none"></path>
  </g></g><text x='131.5' y='98' text-anchor='middle' font-size='14' font-weight='600' fill='#222222'>System Interfaces</text></g></g><line x1="16" y1="433" x2="953" y2="433" stroke="#cccccc" stroke-width="1"/><g><rect x='775.2' y='870' width='185.79999999999998' height='20' rx='4' ry='4' fill='#f6f8fa' stroke='#d0d7de' stroke-width='1'/><g transform='translate(783.2,874) scale(0.25)'><path d='M24 4 L4 24 L24 24 Z' fill='#5DCAA5'/><path d='M4 24 L24 44 L24 24 Z' fill='#1D9E75'/><path d='M24 4 L44 24 L24 24 Z' fill='#9FE1CB'/><path d='M44 24 L24 44 L24 24 Z' fill='#5DCAA5'/></g><text x='801.2' y='884' font-size='11' font-family='sans-serif'><tspan fill='#24292f' font-weight='600'>Klaiv</tspan><tspan fill='#57606a'> · </tspan><tspan fill='#d97706' font-weight='600'>Preview Release</tspan></text></g></svg>